<?xml version="1.0" encoding="utf-8"?>
<!-- Generator: Adobe Illustrator 23.0.1, SVG Export Plug-In . SVG Version: 6.00 Build 0)  -->
<svg version="1.1" id="Calque_1" xmlns="http://www.w3.org/2000/svg" xmlns:xlink="http://www.w3.org/1999/xlink" x="0px" y="0px"
	 viewBox="0 0 117.1 39.7" style="enable-background:new 0 0 117.1 39.7;" xml:space="preserve">
<style type="text/css">
	.st0{enable-background:new    ;}
	.st1{fill:#554E8A;}
	.st2{fill:url(#Fill_1_1_);}
	.st3{fill:url(#Fill_4_1_);}
</style>
<g class="st0">
	<path class="st1" d="M58.4,25.7c-0.2-0.2-0.3-0.5-0.3-0.9v-8.9c0-0.4,0.1-0.7,0.3-0.9s0.5-0.3,0.9-0.3H65c0.8,0,1.2,0.3,1.2,1
		s-0.4,1-1.2,1h-4.4v2.6h4.1c0.8,0,1.2,0.3,1.2,1c0,0.6-0.4,1-1.2,1h-4.1v2.8H65c0.8,0,1.2,0.3,1.2,1c0,0.6-0.4,1-1.2,1h-5.7
		C58.9,26,58.6,25.9,58.4,25.7z"/>
	<g id="Logo">
		
			<linearGradient id="Fill_1_1_" gradientUnits="userSpaceOnUse" x1="-240.1745" y1="45.4361" x2="-240.3955" y2="44.8541" gradientTransform="matrix(30.5652 0 0 32.1102 7370.668 -1420.7264)">
			<stop  offset="0" style="stop-color:#635EAA"/>
			<stop  offset="1" style="stop-color:#8F5AA5"/>
		</linearGradient>
		<path id="Fill_1" class="st2" d="M31.5,26.4c-2.6,4.5-8.2,6.6-9,3.3c-1.7,4.3,0.5,7.6,4.6,7.8c-5.5,0.3-8-4-6-8.7
			c3.7-8.8,24.5-9.5,15.1-21.2c5,7.8-8.6,11-14.6,11.6C13,20,9,25.8,9.1,31c0.2,6.9,8.6,9.7,15.2,8.4c5.5-1.1,10.3-4.4,13.3-9.2
			C42.8,21.8,37.8,15.3,31.5,26.4"/>
		
			<linearGradient id="Fill_4_1_" gradientUnits="userSpaceOnUse" x1="-241.1454" y1="43.4361" x2="-242.1454" y2="43.4361" gradientTransform="matrix(36.3803 0 0 34.2868 8809.3613 -1472.1227)">
			<stop  offset="0" style="stop-color:#635EAA"/>
			<stop  offset="1" style="stop-color:#8F5AA5"/>
		</linearGradient>
		<path id="Fill_4" class="st3" d="M1.3,13.3c2.4-3.5,6.5-5.3,11.4-6c6-6.1,14.6-3.7,15.2-0.7c2.3-1.2,2-3.3-1.5-4.6
			c8.1,2.3,3.1,7.7-5.2,7C2.1,7.4-7.1,21.6,6.4,34.3c-4.3-9.4,5.4-17.6,16.3-17.9c6.4-0.2,18.1-4.5,12-10.6
			C24.3-4.5,6.2-0.6,1.3,13.3"/>
	</g>
	<path class="st1" d="M68.7,25.7c-0.2-0.2-0.3-0.5-0.3-0.9v-9c0-0.4,0.1-0.7,0.3-0.9c0.2-0.2,0.5-0.3,0.9-0.3s0.7,0.1,0.9,0.3
		c0.2,0.2,0.3,0.5,0.3,0.9V24H75c0.8,0,1.2,0.3,1.2,1s-0.4,1-1.2,1h-5.4C69.2,26,68.9,25.9,68.7,25.7z"/>
	<path class="st1" d="M78.6,25.8c-0.2-0.2-0.3-0.5-0.3-0.9v-9c0-0.4,0.1-0.7,0.3-0.9c0.2-0.2,0.5-0.3,0.9-0.3s0.7,0.1,0.9,0.3
		c0.2,0.2,0.3,0.5,0.3,0.9v9c0,0.4-0.1,0.7-0.3,0.9c-0.2,0.2-0.5,0.3-0.9,0.3S78.8,26,78.6,25.8z"/>
	<path class="st1" d="M84.1,25.8c-0.2-0.2-0.3-0.5-0.3-0.9v-9c0-0.4,0.1-0.7,0.3-0.9c0.2-0.2,0.5-0.3,0.9-0.3h4
		c1.2,0,2.2,0.3,2.9,0.9c0.7,0.6,1,1.5,1,2.6s-0.3,2-1,2.6s-1.6,0.9-2.9,0.9h-2.7v3.1c0,0.4-0.1,0.7-0.3,0.9
		c-0.2,0.2-0.5,0.3-0.9,0.3C84.6,26.1,84.3,26,84.1,25.8z M90.5,18.3c0-1.1-0.6-1.6-1.9-1.6h-2.4v3.2h2.4
		C89.9,19.9,90.5,19.3,90.5,18.3z"/>
	<path class="st1" d="M97,25.8c-0.7-0.2-1.3-0.5-1.8-0.8c-0.2-0.1-0.3-0.2-0.3-0.4c-0.1-0.1-0.1-0.3-0.1-0.5c0-0.3,0.1-0.5,0.2-0.7
		c0.2-0.2,0.4-0.3,0.6-0.3c0.1,0,0.2,0,0.3,0.1c0.1,0,0.2,0.1,0.4,0.2c0.5,0.3,0.9,0.5,1.4,0.6s1,0.2,1.6,0.2c0.7,0,1.2-0.1,1.6-0.4
		c0.4-0.2,0.6-0.6,0.6-1c0-0.3-0.2-0.6-0.5-0.8c-0.3-0.2-1-0.4-1.8-0.6c-1-0.2-1.8-0.4-2.4-0.7c-0.6-0.3-1-0.6-1.3-1.1
		c-0.3-0.4-0.4-0.9-0.4-1.6s0.2-1.3,0.6-1.8s0.9-1,1.6-1.3s1.5-0.5,2.3-0.5c1.5,0,2.8,0.4,3.7,1.1c0.2,0.1,0.3,0.3,0.3,0.4
		c0.1,0.1,0.1,0.3,0.1,0.5c0,0.3-0.1,0.5-0.2,0.7c-0.2,0.2-0.4,0.3-0.6,0.3c-0.1,0-0.2,0-0.3,0s-0.2-0.1-0.4-0.2
		c-0.4-0.3-0.8-0.5-1.2-0.6c-0.4-0.1-0.8-0.2-1.4-0.2c-0.7,0-1.2,0.1-1.5,0.4c-0.4,0.3-0.6,0.6-0.6,1c0,0.3,0.1,0.5,0.2,0.6
		c0.1,0.2,0.4,0.3,0.7,0.4s0.8,0.3,1.4,0.4c1.5,0.3,2.5,0.7,3.1,1.2s1,1.2,1,2.1c0,0.7-0.2,1.3-0.6,1.8s-0.9,0.9-1.6,1.2
		c-0.7,0.3-1.5,0.4-2.4,0.4C98.5,26.1,97.7,26,97,25.8z"/>
	<path class="st1" d="M108.7,25.4c-0.8-0.5-1.5-1.1-1.9-2s-0.7-1.9-0.7-3.1s0.2-2.2,0.7-3.1c0.4-0.9,1.1-1.5,1.9-2s1.8-0.7,2.9-0.7
		s2.1,0.2,2.9,0.7s1.5,1.1,1.9,2s0.7,1.9,0.7,3.1s-0.2,2.2-0.7,3.1c-0.4,0.9-1.1,1.5-1.9,2s-1.8,0.7-2.9,0.7S109.5,25.9,108.7,25.4z
		 M113.9,23.2c0.5-0.7,0.8-1.6,0.8-2.9c0-1.2-0.3-2.2-0.8-2.9s-1.3-1-2.2-1s-1.7,0.3-2.2,1s-0.8,1.6-0.8,2.9c0,1.2,0.3,2.2,0.8,2.9
		c0.5,0.7,1.3,1,2.2,1S113.3,23.9,113.9,23.2z"/>
</g>
</svg>
