<svg xmlns="http://www.w3.org/2000/svg" width="16.738" height="16.75" viewBox="0 0 16.738 16.75">
  <path id="_" data-name="" d="M15.059,16.593l-1.5-1.476a.52.52,0,0,1-.117-.312v-.547a8.418,8.418,0,0,1-2.462,1.465,7.869,7.869,0,0,1-2.851.527,7.9,7.9,0,0,1-4.082-1.094,8.206,8.206,0,0,1-2.949-2.949A7.891,7.891,0,0,1,0,8.125,7.894,7.894,0,0,1,1.094,4.043,8.213,8.213,0,0,1,4.043,1.094,7.894,7.894,0,0,1,8.125,0a7.891,7.891,0,0,1,4.082,1.094,8.206,8.206,0,0,1,2.949,2.949A7.9,7.9,0,0,1,16.25,8.125a7.869,7.869,0,0,1-.527,2.851,8.418,8.418,0,0,1-1.465,2.462h.547a.422.422,0,0,1,.312.117l1.5,1.515a.423.423,0,0,1,.117.313.568.568,0,0,1-.117.351l-.9.859a.486.486,0,0,1-.352.157A.37.37,0,0,1,15.059,16.593Z" fill="#5b5766" opacity="0.6"/>
</svg>
