<?xml version="1.0" encoding="utf-8"?>
<!-- Generator: Adobe Illustrator 23.0.1, SVG Export Plug-In . SVG Version: 6.00 Build 0)  -->
<svg version="1.1" id="Calque_1" xmlns="http://www.w3.org/2000/svg" xmlns:xlink="http://www.w3.org/1999/xlink" x="0px" y="0px"
	 viewBox="0 0 60 59.7" style="enable-background:new 0 0 60 59.7;" xml:space="preserve">
<style type="text/css">
	.st0{fill:#6852ED;}
	.st1{fill:#FFFFFF;}
</style>
<path class="st0" d="M48,59.7H12c-6.6,0-12-5.4-12-12v-36c0-6.6,5.4-12,12-12h36c6.6,0,12,5.4,12,12v36C60,54.3,54.6,59.7,48,59.7z"
	/>
<path class="st1" d="M50.5,17.1H9.2c-1.3,0-2.4,1.1-2.4,2.4v0c0,1.3,1.1,2.4,2.4,2.4h41.3c1.3,0,2.4-1.1,2.4-2.4v0
	C52.9,18.1,51.8,17.1,50.5,17.1z"/>
<path class="st1" d="M50.5,27.8H9.2c-1.3,0-2.4,1.1-2.4,2.4v0c0,1.3,1.1,2.4,2.4,2.4h41.3c1.3,0,2.4-1.1,2.4-2.4v0
	C52.9,28.8,51.8,27.8,50.5,27.8z"/>
<path class="st1" d="M50.5,39H9.2c-1.3,0-2.4,1.1-2.4,2.4v0c0,1.3,1.1,2.4,2.4,2.4h41.3c1.3,0,2.4-1.1,2.4-2.4v0
	C52.9,40.1,51.8,39,50.5,39z"/>
</svg>
